<?xml version="1.0" encoding="UTF-8"?>
<svg xmlns="http://www.w3.org/2000/svg" xmlns:xlink="http://www.w3.org/1999/xlink" width="360px" height="360px" viewBox="0 0 360 360">
<path fill="none" stroke-width="10" stroke-linecap="round" stroke-linejoin="round" stroke="rgb(12.549017%, 38.82353%, 67.450982%)" stroke-opacity="1" stroke-miterlimit="10" d="M 100 100 L 100 260 "/>
<path fill-rule="evenodd" fill="rgb(12.549017%, 38.82353%, 67.450982%)" fill-opacity="1" d="M 100 100 C 100 100 180 100 180 140 C 180 140 100 140 100 180 C 100 180 160 180 160 240 C 160 240 100 240 100 260 Z M 100 100 "/>
<path fill="none" stroke-width="10" stroke-linecap="round" stroke-linejoin="round" stroke="rgb(12.549017%, 38.82353%, 67.450982%)" stroke-opacity="1" stroke-miterlimit="10" d="M 100 100 C 100 100 180 100 180 140 C 180 140 100 140 100 180 C 100 180 160 180 160 240 C 160 240 100 240 100 260 "/>
<path fill-rule="evenodd" fill="rgb(12.549017%, 38.82353%, 67.450982%)" fill-opacity="1" d="M 220 100 L 220 260 L 260 100 Z M 220 100 "/>
<path fill="none" stroke-width="10" stroke-linecap="round" stroke-linejoin="round" stroke="rgb(12.549017%, 38.82353%, 67.450982%)" stroke-opacity="1" stroke-miterlimit="10" d="M 220 100 L 220 260 L 260 100 L 220 100 "/>
<path fill-rule="evenodd" fill="rgb(12.549017%, 38.82353%, 67.450982%)" fill-opacity="1" d="M 200 280 L 240 280 L 220 300 Z M 200 280 "/>
<path fill="none" stroke-width="10" stroke-linecap="round" stroke-linejoin="round" stroke="rgb(12.549017%, 38.82353%, 67.450982%)" stroke-opacity="1" stroke-miterlimit="10" d="M 200 280 L 240 280 L 220 300 L 200 280 "/>
<path fill-rule="evenodd" fill="rgb(12.549017%, 38.82353%, 67.450982%)" fill-opacity="1" d="M 80 100 L 80 260 L 100 260 L 100 100 Z M 80 100 "/>
<path fill="none" stroke-width="10" stroke-linecap="round" stroke-linejoin="round" stroke="rgb(12.549017%, 38.82353%, 67.450982%)" stroke-opacity="1" stroke-miterlimit="10" d="M 80 100 L 80 260 L 100 260 L 100 100 L 80 100 "/>
</svg>
